<svg width="20" height="20" viewBox="0 0 20 20" fill="none" xmlns="http://www.w3.org/2000/svg">
<g clip-path="url(#clip0_10908_601)">
<path d="M14.1668 17.5V15.8333C14.1668 14.9493 13.8156 14.1014 13.1905 13.4763C12.5654 12.8512 11.7176 12.5 10.8335 12.5H4.16683C3.28277 12.5 2.43493 12.8512 1.80981 13.4763C1.18469 14.1014 0.833496 14.9493 0.833496 15.8333V17.5" stroke="#FAFAFA" stroke-width="2" stroke-linecap="round" stroke-linejoin="round"/>
<path d="M7.50008 9.16667C9.34103 9.16667 10.8334 7.67428 10.8334 5.83333C10.8334 3.99238 9.34103 2.5 7.50008 2.5C5.65913 2.5 4.16675 3.99238 4.16675 5.83333C4.16675 7.67428 5.65913 9.16667 7.50008 9.16667Z" stroke="#FAFAFA" stroke-width="2" stroke-linecap="round" stroke-linejoin="round"/>
<path d="M19.1667 17.5V15.8333C19.1662 15.0948 18.9204 14.3773 18.4679 13.7936C18.0154 13.2099 17.3819 12.793 16.6667 12.6083" stroke="#FAFAFA" stroke-width="2" stroke-linecap="round" stroke-linejoin="round"/>
<g filter="url(#filter0_d_10908_601)">
<path d="M13.3335 2.60833C14.0505 2.79192 14.686 3.20892 15.1399 3.79359C15.5937 4.37827 15.84 5.09736 15.84 5.8375C15.84 6.57764 15.5937 7.29673 15.1399 7.88141C14.686 8.46608 14.0505 8.88308 13.3335 9.06667" fill="#FAFAFA"/>
<path d="M13.3335 2.60833C14.0505 2.79192 14.686 3.20892 15.1399 3.79359C15.5937 4.37827 15.84 5.09736 15.84 5.8375C15.84 6.57764 15.5937 7.29673 15.1399 7.88141C14.686 8.46608 14.0505 8.88308 13.3335 9.06667" stroke="#FAFAFA" stroke-width="2" stroke-linecap="round" stroke-linejoin="round"/>
</g>
</g>
<defs>
<filter id="filter0_d_10908_601" x="8.33325" y="1.60809" width="12.5068" height="16.4588" filterUnits="userSpaceOnUse" color-interpolation-filters="sRGB">
<feFlood flood-opacity="0" result="BackgroundImageFix"/>
<feColorMatrix in="SourceAlpha" type="matrix" values="0 0 0 0 0 0 0 0 0 0 0 0 0 0 0 0 0 0 127 0" result="hardAlpha"/>
<feOffset dy="4"/>
<feGaussianBlur stdDeviation="2"/>
<feComposite in2="hardAlpha" operator="out"/>
<feColorMatrix type="matrix" values="0 0 0 0 0 0 0 0 0 0 0 0 0 0 0 0 0 0 0.25 0"/>
<feBlend mode="normal" in2="BackgroundImageFix" result="effect1_dropShadow_10908_601"/>
<feBlend mode="normal" in="SourceGraphic" in2="effect1_dropShadow_10908_601" result="shape"/>
</filter>
<clipPath id="clip0_10908_601">
<rect width="20" height="20" fill="white"/>
</clipPath>
</defs>
</svg>
